<svg width="1131" height="104" viewBox="0 0 1131 104" fill="none" xmlns="http://www.w3.org/2000/svg">
<g clip-path="url(#clip0_313_63)">
<g filter="url(#filter0_d_313_63)">
<path d="M32.1835 27.0311C32.1835 24.1904 34.4714 21.8876 37.2937 21.8876H92.31C95.1322 21.8876 97.4202 24.1904 97.4202 27.0311C97.4202 29.8718 95.1322 32.1747 92.31 32.1747H37.2937C34.4714 32.1747 32.1835 29.8718 32.1835 27.0311Z" fill="#09ABFD"/>
<path d="M41.5341 51.3992C41.5341 48.5585 43.822 46.2557 46.6443 46.2557H87.1635C89.9858 46.2557 92.2737 48.5585 92.2737 51.3992C92.2737 54.24 89.9858 56.5428 87.1635 56.5428H46.6443C43.822 56.5428 41.5341 54.24 41.5341 51.3992Z" fill="#09ABFD"/>
<path d="M45.7382 75.8403C45.7382 72.9996 48.0261 70.6967 50.8484 70.6967H76.8706C79.6928 70.6967 81.9808 72.9996 81.9808 75.8403C81.9808 78.681 79.6928 80.9838 76.8706 80.9838H50.8484C48.0261 80.9838 45.7382 78.681 45.7382 75.8403Z" fill="#09ABFD"/>
<path d="M6.95862 21.8876H38.7941C52.0154 21.8876 57.6693 30.1173 57.6693 39.5727C57.6693 46.9269 54.19 54.8064 45.2308 57.3454L58.887 80.9839H47.4923L34.0971 58.1333H18.7882C17.8314 58.1333 17.3095 58.5711 17.3095 59.6217V80.9839H7.0456V57.608C7.0456 50.9542 9.82903 48.2401 16.2657 48.2401H39.142C44.9699 48.2401 47.3184 44.2128 47.3184 40.0104C47.3184 35.808 44.7959 32.2185 39.142 32.2185H6.95862V21.8876Z" fill="white"/>
</g>
</g>
<path d="M115.4 34.0305L96.8885 81H85.6435L106.144 29.1C108.307 23.6505 112.286 21.5745 118.427 21.5745C124.482 21.5745 128.461 23.6505 130.537 29.1L150.259 81H138.928L121.195 34.0305C120.676 32.6465 119.725 32.041 118.341 32.041C116.957 32.041 116.005 32.6465 115.4 34.0305ZM163.769 22.6125H184.356C201.396 22.6125 210.652 32.1275 210.652 51.8495C210.652 71.485 201.483 81 184.356 81H163.769C160.482 81 158.925 79.443 158.925 76.2425V27.37C158.925 24.1695 160.482 22.6125 163.769 22.6125ZM169.132 33.8575V69.755C169.132 70.5335 169.478 70.793 170.256 70.793H184.356C195.687 70.793 200.445 65.1705 200.445 51.763C200.445 38.442 195.687 32.8195 184.356 32.8195H170.256C169.478 32.8195 169.132 33.079 169.132 33.8575ZM210.735 22.6125H223.105L239.453 47.611L255.975 22.6125H268.085L244.557 55.8285V81H234.263V55.8285L210.735 22.6125ZM320.422 22.6125H344.642V32.8195H321.114C311.859 32.8195 309.091 37.231 309.091 42.6805V48.2165H344.296V57.9045H309.091V81H298.884V42.767C298.884 31.0895 304.939 22.6125 320.422 22.6125ZM380.98 22.6125H388.938C405.892 22.6125 415.32 32.3005 415.32 51.936C415.32 71.485 405.978 81 388.938 81H380.98C363.939 81 354.597 71.485 354.597 51.936C354.597 32.3005 364.026 22.6125 380.98 22.6125ZM388.938 32.8195H380.98C369.735 32.8195 364.804 38.5285 364.804 51.936C364.804 65.257 369.648 70.793 380.98 70.793H388.938C400.183 70.793 405.027 65.257 405.027 51.8495C405.027 38.5285 400.183 32.8195 388.938 32.8195ZM427.206 22.6125H458.865C472.013 22.6125 477.635 30.7435 477.635 40.0855C477.635 47.3515 474.175 55.1365 465.266 57.645L478.846 81H467.515L454.194 58.4235H438.97C438.018 58.4235 437.499 58.856 437.499 59.894V81H427.292V57.9045C427.292 51.3305 430.06 48.649 436.461 48.649H459.211C465.006 48.649 467.342 44.67 467.342 40.518C467.342 36.366 464.833 32.8195 459.211 32.8195H427.206V22.6125ZM507.605 22.6125H551.979V32.8195H534.939V81H524.645V32.8195H507.605V22.6125ZM584.136 22.6125H592.094C609.048 22.6125 618.477 32.3005 618.477 51.936C618.477 71.485 609.135 81 592.094 81H584.136C567.096 81 557.754 71.485 557.754 51.936C557.754 32.3005 567.182 22.6125 584.136 22.6125ZM592.094 32.8195H584.136C572.891 32.8195 567.961 38.5285 567.961 51.936C567.961 65.257 572.805 70.793 584.136 70.793H592.094C603.339 70.793 608.183 65.257 608.183 51.8495C608.183 38.5285 603.339 32.8195 592.094 32.8195ZM650.079 33.944L632.606 81H621.707L639.785 32.387C642.034 25.7265 645.754 21.5745 653.539 21.5745C662.189 21.5745 666.514 26.678 666.514 34.29V68.8035C666.514 70.793 667.725 72.0905 669.455 72.0905C671.012 72.0905 672.223 71.139 672.742 69.6685L686.928 32.387C689.177 25.7265 692.896 21.5745 700.681 21.5745C709.331 21.5745 713.656 26.678 713.656 34.29V81H703.363V34.809C703.363 32.733 702.152 31.4355 700.422 31.4355C698.951 31.4355 697.74 32.4735 697.221 33.944L683.035 71.2255C680.786 77.886 676.98 82.038 669.195 82.038C660.632 82.038 656.307 76.9345 656.307 69.236V34.809C656.307 32.733 655.009 31.4355 653.279 31.4355C651.722 31.4355 650.684 32.4735 650.079 33.944ZM751.983 22.6125H759.941C776.895 22.6125 786.324 32.3005 786.324 51.936C786.324 71.485 776.982 81 759.941 81H751.983C734.943 81 725.601 71.485 725.601 51.936C725.601 32.3005 735.029 22.6125 751.983 22.6125ZM759.941 32.8195H751.983C740.738 32.8195 735.808 38.5285 735.808 51.936C735.808 65.257 740.652 70.793 751.983 70.793H759.941C771.186 70.793 776.03 65.257 776.03 51.8495C776.03 38.5285 771.186 32.8195 759.941 32.8195ZM798.21 22.6125H829.869C843.017 22.6125 848.639 30.7435 848.639 40.0855C848.639 47.3515 845.179 55.1365 836.27 57.645L849.85 81H838.519L825.198 58.4235H809.974C809.022 58.4235 808.503 58.856 808.503 59.894V81H798.296V57.9045C798.296 51.3305 801.064 48.649 807.465 48.649H830.215C836.01 48.649 838.346 44.67 838.346 40.518C838.346 36.366 835.837 32.8195 830.215 32.8195H798.21V22.6125ZM859.959 22.6125H891.618C904.766 22.6125 910.389 30.7435 910.389 40.0855C910.389 47.3515 906.929 55.1365 898.019 57.645L911.6 81H900.268L886.947 58.4235H871.723C870.772 58.4235 870.253 58.856 870.253 59.894V81H860.046V57.9045C860.046 51.3305 862.814 48.649 869.215 48.649H891.964C897.76 48.649 900.095 44.67 900.095 40.518C900.095 36.366 897.587 32.8195 891.964 32.8195H859.959V22.6125ZM944.834 22.6125H952.792C969.746 22.6125 979.175 32.3005 979.175 51.936C979.175 71.485 969.833 81 952.792 81H944.834C927.794 81 918.452 71.485 918.452 51.936C918.452 32.3005 927.88 22.6125 944.834 22.6125ZM952.792 32.8195H944.834C933.589 32.8195 928.659 38.5285 928.659 51.936C928.659 65.257 933.503 70.793 944.834 70.793H952.792C964.037 70.793 968.881 65.257 968.881 51.8495C968.881 38.5285 964.037 32.8195 952.792 32.8195ZM982.405 22.6125H993.304L1010.78 69.6685C1011.38 71.139 1012.42 72.0905 1013.98 72.0905C1015.71 72.0905 1017.01 70.793 1017.01 68.8035V34.29C1017.01 26.678 1021.33 21.5745 1029.89 21.5745C1037.68 21.5745 1041.48 25.7265 1043.73 32.387L1057.92 69.6685C1058.44 71.139 1059.65 72.0905 1061.12 72.0905C1062.85 72.0905 1064.06 70.793 1064.06 68.8035V22.6125H1074.35V69.236C1074.35 76.9345 1070.03 82.038 1061.38 82.038C1053.59 82.038 1049.88 77.886 1047.63 71.2255L1033.44 33.944C1032.92 32.4735 1031.71 31.4355 1030.15 31.4355C1028.42 31.4355 1027.21 32.733 1027.21 34.809V69.236C1027.21 76.9345 1022.89 82.038 1014.24 82.038C1006.45 82.038 1002.73 77.886 1000.48 71.2255L982.405 22.6125ZM1083.88 20.969H1110.69C1122.72 20.969 1127.47 27.1105 1127.47 36.02C1127.47 44.4105 1123.23 51.417 1113.37 51.417H1108.36C1105.42 51.417 1104.2 52.974 1104.2 55.4825V60.413H1096.33V53.5795C1096.33 46.919 1099.01 43.3725 1106.02 43.3725H1111.64C1116.31 43.3725 1118.39 40.4315 1118.39 36.4525C1118.39 32.4735 1116.06 29.792 1110.69 29.792H1083.88V20.969ZM1095.38 69.236H1105.24V81H1095.38V69.236Z" fill="white"/>
<defs>
<filter id="filter0_d_313_63" x="2.95862" y="21.8876" width="98.4615" height="67.0963" filterUnits="userSpaceOnUse" color-interpolation-filters="sRGB">
<feFlood flood-opacity="0" result="BackgroundImageFix"/>
<feColorMatrix in="SourceAlpha" type="matrix" values="0 0 0 0 0 0 0 0 0 0 0 0 0 0 0 0 0 0 127 0" result="hardAlpha"/>
<feOffset dy="4"/>
<feGaussianBlur stdDeviation="2"/>
<feComposite in2="hardAlpha" operator="out"/>
<feColorMatrix type="matrix" values="0 0 0 0 0 0 0 0 0 0 0 0 0 0 0 0 0 0 0.25 0"/>
<feBlend mode="normal" in2="BackgroundImageFix" result="effect1_dropShadow_313_63"/>
<feBlend mode="normal" in="SourceGraphic" in2="effect1_dropShadow_313_63" result="shape"/>
</filter>
<clipPath id="clip0_313_63">
<rect width="98" height="94.7" fill="white"/>
</clipPath>
</defs>
</svg>
