<svg width="676" height="649" viewBox="0 0 676 649" fill="none" xmlns="http://www.w3.org/2000/svg">
<g filter="url(#filter0_d_1_14)">
<path d="M222 185.25C222 165.782 237.782 150 257.25 150H636.75C656.218 150 672 165.782 672 185.25V185.25C672 204.718 656.218 220.5 636.75 220.5H257.25C237.782 220.5 222 204.718 222 185.25V185.25Z" fill="#09ABFD"/>
<path d="M286.5 352.25C286.5 332.782 302.282 317 321.75 317H601.25C620.718 317 636.5 332.782 636.5 352.25V352.25C636.5 371.718 620.718 387.5 601.25 387.5H321.75C302.282 387.5 286.5 371.718 286.5 352.25V352.25Z" fill="#09ABFD"/>
<path d="M315.5 519.75C315.5 500.282 331.282 484.5 350.75 484.5H530.25C549.718 484.5 565.5 500.282 565.5 519.75V519.75C565.5 539.218 549.718 555 530.25 555H350.75C331.282 555 315.5 539.218 315.5 519.75V519.75Z" fill="#09ABFD"/>
<path d="M48 150H267.6C358.8 150 397.8 206.4 397.8 271.2C397.8 321.6 373.8 375.6 312 393L406.2 555H327.6L235.2 398.4H129.6C123 398.4 119.4 401.4 119.4 408.6V555H48.6V394.8C48.6 349.2 67.8 330.6 112.2 330.6H270C310.2 330.6 326.4 303 326.4 274.2C326.4 245.4 309 220.8 270 220.8H48V150Z" fill="white"/>
</g>
<defs>
<filter id="filter0_d_1_14" x="44" y="150" width="632" height="413" filterUnits="userSpaceOnUse" color-interpolation-filters="sRGB">
<feFlood flood-opacity="0" result="BackgroundImageFix"/>
<feColorMatrix in="SourceAlpha" type="matrix" values="0 0 0 0 0 0 0 0 0 0 0 0 0 0 0 0 0 0 127 0" result="hardAlpha"/>
<feOffset dy="4"/>
<feGaussianBlur stdDeviation="2"/>
<feComposite in2="hardAlpha" operator="out"/>
<feColorMatrix type="matrix" values="0 0 0 0 0 0 0 0 0 0 0 0 0 0 0 0 0 0 0.25 0"/>
<feBlend mode="normal" in2="BackgroundImageFix" result="effect1_dropShadow_1_14"/>
<feBlend mode="normal" in="SourceGraphic" in2="effect1_dropShadow_1_14" result="shape"/>
</filter>
</defs>
</svg>
